<?xml version="1.0" encoding="UTF-8"?>
<!DOCTYPE svg PUBLIC "-//W3C//DTD SVG 1.1//EN" "http://www.w3.org/Graphics/SVG/1.1/DTD/svg11.dtd">
<!-- Creator: CorelDRAW 2019 (64-Bit) -->
<svg xmlns="http://www.w3.org/2000/svg" xml:space="preserve" width="186.583mm" height="171.811mm" version="1.1" style="shape-rendering:geometricPrecision; text-rendering:geometricPrecision; image-rendering:optimizeQuality; fill-rule:evenodd; clip-rule:evenodd"
viewBox="0 0 186.3686 171.6138"
 xmlns:xlink="http://www.w3.org/1999/xlink"
 xmlns:xodm="http://www.corel.com/coreldraw/odm/2003">
 <defs>
  <style type="text/css">
   <![CDATA[
    .fil1 {fill:#040300}
    .fil2 {fill:#FFAB00}
    .fil0 {fill:black}
    .fil3 {fill:white}
   ]]>
  </style>
 </defs>
 <g id="Layer_x0020_1">
  <metadata id="CorelCorpID_0Corel-Layer"/>
  <g id="_847692912">
   <path class="fil0" d="M185.073 170.3198c-0.8615,0.8632 -1.8119,1.294 -3.0199,1.294 -1.2067,0 -2.1569,-0.4308 -3.0183,-1.294 -0.8632,-0.8628 -1.2087,-1.8114 -1.2087,-3.0201 0,-1.2081 0.4308,-2.1566 1.2087,-3.0199 0.8614,-0.8628 1.8116,-1.2082 3.0183,-1.2082 1.208,0 2.1584,0.4325 3.0199,1.2082 0.8631,0.8633 1.2956,1.8118 1.2956,3.0199 0,1.1215 -0.4325,2.1573 -1.2956,3.0201zm-5.6075 -5.6092l0 0c-0.6908,0.6907 -1.0358,1.5534 -1.0358,2.5891 0,1.0358 0.345,1.8972 1.0358,2.588 0.6904,0.6903 1.5536,1.1228 2.5876,1.1228 1.0356,0 1.8988,-0.3453 2.5892,-1.1228 0.6905,-0.6908 1.0356,-1.5522 1.0356,-2.588 0,-1.0357 -0.3451,-1.8984 -1.0356,-2.5891 -0.6904,-0.6903 -1.5536,-1.0339 -2.5892,-1.0339 -0.9487,-0.0872 -1.8119,0.2582 -2.5876,1.0339zm2.5876 0.1725l0 0 0 0.0874 -1.7249 0 0 4.659 0.8633 0 0 -1.8118 0.6033 0c0.4307,0 0.7761,0.0857 0.9485,0.1729 0.2601,0.1724 0.4324,0.5178 0.4324,1.0357l0 0.6032 0.7762 0 0 -1.0358c0,-0.1725 -0.0854,-0.4307 -0.2583,-0.6903 -0.1724,-0.2582 -0.4325,-0.3454 -0.7775,-0.4306 0.2596,-0.0872 0.5179,-0.1731 0.6904,-0.2602 0.26,-0.2578 0.4325,-0.5177 0.4325,-0.9486 0,-0.6031 -0.1725,-1.0356 -0.6904,-1.2081 -0.2599,-0.0854 -0.6906,-0.1728 -1.2955,-0.1728zm0.863 0.7778l0 0c-0.1728,-0.0872 -0.5178,-0.1725 -1.0356,-0.1725l-0.689 0 0 1.639 0.7761 0c0.3454,0 0.6033,0 0.7757,-0.0872 0.3454,-0.0854 0.5178,-0.3453 0.5178,-0.689 0,-0.3449 -0.1724,-0.5178 -0.345,-0.6903z"/>
   <path class="fil1" d="M153.926 0l-120.8804 0c-18.2053,0 -33.0456,14.4096 -33.0456,32.0098l0 107.4211c0,17.8603 14.3224,31.9245 32.7007,31.9245l120.9675 0c18.3763,0 32.7004,-14.0642 32.7004,-31.9245l0 -107.4211c0,-17.9456 -14.2371,-32.0098 -32.4426,-32.0098zm28.732 139.4309l0 0c0,15.876 -12.7704,28.2143 -29.0769,28.2143l-120.8804 0c-16.3069,0.0853 -28.9904,-12.3383 -28.9904,-28.2143l0 -107.4211c0,-15.8759 12.856,-28.3866 29.3353,-28.3866l120.966 0c16.1357,0 28.7317,12.4253 28.7317,28.3866l0 107.4211 -0.0853 0z"/>
   <path class="fil2" d="M182.658 139.4309c0,15.876 -12.7704,28.2143 -29.0769,28.2143l-120.8804 0c-16.3069,0.0853 -28.9904,-12.3383 -28.9904,-28.2143l0 -107.4211c0,-15.8759 12.856,-28.3866 29.3353,-28.3866l120.966 0c16.1357,0 28.7317,12.4253 28.7317,28.3866l0 107.4211 -0.0853 0z"/>
   <polygon class="fil3" points="149.2671,105.3499 133.8218,105.3499 131.1473,88.5252 121.2258,105.1769 105.6076,105.1769 115.0999,115.1859 107.3341,132.0101 124.4182,121.8291 137.7922,132.183 135.2901,115.1859 "/>
   <path class="fil1" d="M160.0517 101.9844l-23.3824 0 -3.709 -23.2952 -13.6333 23.1228 -2.5876 0c-1.5535,-2.6751 -2.1571,-6.5577 -2.1571,-8.9729 0,-3.9685 0.2583,-7.8517 0.2583,-12.943 0,-6.729 -1.9843,-10.2668 -7.2486,-11.5608l0 -0.1725c11.1317,-1.5535 16.2214,-8.9745 16.2214,-19.3284 0,-14.7527 -9.8361,-17.9456 -22.6923,-17.9456l-34.5972 0 -14.6696 69.3697 18.3781 0 5.3496 -25.2795 12.2528 0c6.5577,0 9.2324,3.1924 9.2324,9.3177 0,4.6593 -0.5178,8.3696 -0.5178,11.9074 0,1.294 0.2582,4.3993 1.2069,5.6079l13.2879 14.0642 -11.475 24.5905 24.5035 -14.582 18.291 14.0642 -3.3653 -23.2095 21.0532 -14.755zm-66.6946 -39.9485l0 0 -14.6678 0 3.5361 -16.7376 13.6338 0c4.8312,0 9.9214,1.294 9.9214,7.1611 0,7.5069 -5.7804,9.5766 -12.4235,9.5766zm31.0611 59.7931l0 0 -17.0841 10.181 7.8518 -16.7388 -9.4912 -10.0085 15.6166 0 9.8361 -16.6521 2.6744 16.8245 15.5306 0 -13.977 9.7508 2.502 17.084 -13.4592 -10.4409z"/>
  </g>
 </g>
</svg>
