<?xml version="1.0" encoding="utf-8"?>
<!-- Generator: Adobe Illustrator 19.0.0, SVG Export Plug-In . SVG Version: 6.00 Build 0)  -->
<svg version="1.1" id="Livello_1" xmlns="http://www.w3.org/2000/svg" xmlns:xlink="http://www.w3.org/1999/xlink" x="0px" y="0px"
	 viewBox="0 0 1000 1000" style="enable-background:new 0 0 1000 1000;" xml:space="preserve">
<style type="text/css">
	.st0{fill:#1F201E;}
	.st1{fill:none;stroke:#000000;stroke-width:0.25;stroke-miterlimit:10;}
</style>
<g id="XMLID_2_">
	<path id="XMLID_17_" class="st0" d="M656,420.8c-10-83.5-74.5-119.1-104-131.1c-7.8-3.2-15.9-5.6-24.2-7
		C403.7,262.1,351,370,351,370l14.3,8.5c-45.7,98.3,15.1,166.2,39.2,188c4.9,4.4,10.2,8.4,15.9,11.8c103.1,62,184.8-14.1,184.8-14.1
		C675.6,501,656,420.8,656,420.8z M397.2,437.5c-12.7,25.1-9.8,47.9-10.8,53.8c-1,5.9-4.9,0-4.9,0c-7.5-12.7-5.5-42.7-5.5-42.7
		c2.6-14.7,10.8-37.2,17.9-44.3c7.2-7.2,12.1-17.9,39.1-31c27.1-13,54.4-11.1,80.2,0c25.8,11.1,45.3,39.4,47.3,51.2
		c2,11.7-6.5,1.3-6.5,1.3s0.3-2.9-21.8-20.2c-22.2-17.3-51.8-22.2-74.6-16.3C434.6,395.1,409.9,412.4,397.2,437.5z M534.4,496.5
		c-29.7,33.6-59,8.8-59,8.8c-29.3-21.2-11.7-54.4-11.7-54.4c18.9-24.8,38.4-21.8,48.5-17.7c4.2,1.7,7.9,4.4,11,7.7
		c21.5,23.6,0.5,47.8,0.5,47.8L534.4,496.5z M625.7,488c0,0-31.3,95.8-133,85.4c0,0-67.1-9.8-78.2-80.8c0,0-9.8-36.5,32.9-69.1
		c0,0,2.6-1.8,1.6,2.4c-1,4.2-13.2,7.8-18.1,43.8s25.4,57.4,33.2,62.8c7.8,5.4,57,24.9,93.9-11c36.9-35.9,30.6-82.4,30.6-82.4
		s-0.7-42.3-43-76.8s-94.6-23.5-94.6-23.5s-21.2,2.9-53.9,24.3c-0.3,0.2-0.7,0.5-0.9,0.8c-0.6,0.9-2.5,2.9-5.9,1.5c0,0,0,0,0,0
		c0,0-2.7-2,1.7-6.5c4.4-4.5,6.8-7.2,6.8-7.2s56.9-75.2,158.7-28.7c2.5,1.1,4.8,2.4,7.1,3.9C583.4,338.6,657.1,392,625.7,488z"/>
	<path id="XMLID_5_" class="st0" d="M263.4,629h20.3v58.4c0,0,2.9,13.9,16.4,13.9c13.4,0,17.6-11.7,17.6-13.7c0-2,0-58.7,0-58.7
		h19.8v57.5c0,0.8,0,1.6-0.1,2.4c-0.8,6.4-6,30.8-36.9,30.8c-28.8,0-35.2-20.5-36.6-28.3c-0.3-1.5-0.4-3-0.4-4.6V629z"/>
	<path id="XMLID_20_" class="st0" d="M393.7,671.9c0,0,10.8-4.7,10.8-21s-18.8-22-27.5-22c-8.7,0-30.5,0-30.5,0s-1,90.9,0,90.9h35
		c1.5,0,3.1-0.2,4.6-0.6c6.3-1.7,21.8-7.6,21.8-24.9C407.9,672.7,393.7,671.9,393.7,671.9z M365.6,646c0,0,6.1-0.2,12-0.2
		c3.7,0,8.3,3.7,8.3,9.2c0,3.5-2,5.8-3.8,7.2c-1.7,1.2-3.7,1.8-5.7,1.8h-10.8V646z M378.4,702.8h-12.8v-21.3c0,0,7.3-0.3,14.2-0.3
		c4.4,0,9.9,4.4,9.9,11c0,4.1-2.3,6.8-4.5,8.5C383.2,702.1,380.8,702.8,378.4,702.8z"/>
	<rect id="XMLID_7_" x="415.1" y="629" class="st0" width="20.2" height="90.7"/>
	<path id="XMLID_12_" class="st0" d="M440.8,701.3l15.5-12.2c0,0,6.2,13.2,17.9,13.2c11.7,0,10.8-11.6,10.8-11.6s0.3-5.9-15-10.6
		c-15.3-4.7-25.1-14.4-24.4-25.7c0.7-11.2,8.5-23.3,20-25.4s26.2-1.8,37.3,14.7l-15.2,11.1c0,0-4.2-10.9-15.9-9.8
		c-11.7,1.1-9.5,10.8-6.4,13.9c2.8,2.8,17.3,8,20.6,9.2c0.5,0.2,2.1,0.8,2.6,1c3.3,1.6,15,8.3,15.6,17.7
		c0.8,11.2,1.1,21.5-15.5,29.8C472.1,724.8,450.5,717,440.8,701.3z"/>
	<polyline id="XMLID_1_" class="st0" points="663.3,683.3 625.8,683.3 625.8,719.7 607.1,719.7 607.1,629.3 667.2,629.3 
		667.2,648.6 626,648.6 626,667.8 663.3,667.8 	"/>
	<polygon id="XMLID_6_" class="st0" points="698.7,719.7 698.7,649 674.1,649 674.1,629.3 743.3,629.3 743.3,649 719.4,649 
		719.4,719.7 700.4,719.7 	"/>
	<path id="XMLID_9_" class="st0" d="M556.2,627.2c-13.1,0-24.9,5.3-33.3,13.9l2.6,2.6c-9.1,8.2-14,20.9-14,34.1
		c0,4.2,0.6,8.3,1.7,12.2c0.4,1.4,0.9,2.7,1.6,4c7.7,14.9,23.4,25.1,41.4,25.1c24.9,0,43.9-19.3,45.2-43.6c0-0.8,0.1-1.5,0.1-2.3
		C601.4,647.8,581.9,627.2,556.2,627.2z M557.3,701.7c-3.2,0.3-6.3,0.1-9.3-0.5c-8.8-2-15.5-8.5-17.6-17.3c-0.5-2.1-0.8-4.4-0.8-6.6
		c0-8.1,3.4-15.3,8.8-20.5l-2.6-2.9c5.1-4.8,10.8-7.8,18.4-7.8c8.8,0,16.6,3,21.8,9.3c4.7,5.6,7.2,13.1,6.3,21.1
		C581.1,689.6,570.5,700.3,557.3,701.7z"/>
	<line id="XMLID_3_" class="st0" x1="663.3" y1="682.3" x2="663.3" y2="669"/>
	<path id="XMLID_8_" class="st1" d="M256.7,719.7"/>
</g>
</svg>
